<?xml version="1.0" encoding="UTF-8" standalone="no"?>
<!-- Generator: Gravit.io --><svg xmlns="http://www.w3.org/2000/svg" xmlns:xlink="http://www.w3.org/1999/xlink"
  style="isolation:isolate" viewBox="0 0 276 241.271" width="276pt" height="241.271pt">
  <g>
    <path
      d=" M 207 240.145 Q 203.372 242.283 138 240.145 Q 72.913 242.397 69 240.145 Q 65.087 237.893 34.5 180.389 Q 0 125.955 0 120.633 Q 0 115.312 34.5 60.878 Q 65.192 3.366 69 1.122 Q 72.808 -1.122 138 1.122 Q 203.133 -1.104 207 1.122 Q 210.867 3.348 241.5 60.878 Q 276 115.312 276 120.633 Q 276 125.955 241.5 180.389 Q 210.628 238.007 207 240.145 Z "
      fill="#262322" />
    <path
      d=" M 112.294 86.618 Q 112.294 98.393 112.294 120.916 L 82.534 81.782 Q 99.473 81.782 107.314 81.782 C 112.252 81.782 112.294 81.931 112.294 86.618 Z  M 90.734 159.478 L 51.038 104.748 L 50.749 104.748 L 50.749 104.748 Q 50.749 92.979 56.151 87.381 L 56.151 87.381 L 56.151 87.381 Q 61.553 81.782 72.791 81.782 L 72.791 81.782 L 112.294 138.568 L 112.294 138.568 Q 112.294 149.88 107.133 154.736 L 107.133 154.736 L 107.133 154.736 Q 102.117 159.478 90.734 159.478 L 90.734 159.478 Z  M 57.127 159.535 C 50.752 159.535 50.894 159.118 50.894 153.306 Q 50.894 140.375 50.894 120.173 L 79.544 159.535 Q 65.875 159.535 57.127 159.535 Z  M 198.582 159.535 L 198.582 81.668 Q 211.757 81.668 220.189 81.668 C 225.189 81.668 225.254 81.556 225.254 86.431 Q 225.254 105.218 225.254 134.569 L 225.254 134.569 Q 225.254 147.195 220.383 153.136 L 220.383 153.136 L 220.383 153.136 Q 215.029 159.535 202.875 159.535 L 202.875 159.535 L 198.582 159.535 Z  M 127.005 134.569 Q 127.005 105.332 127.005 86.618 C 127.005 81.743 126.939 81.668 131.752 81.668 Q 140.309 81.668 153.677 81.668 L 153.677 159.535 L 149.385 159.535 L 149.385 159.535 Q 131.587 159.535 128.162 145.252 L 128.162 145.252 L 128.162 145.252 Q 127.005 140.625 127.005 134.569 L 127.005 134.569 Z  M 162.745 159.592 L 162.745 81.725 L 189.562 81.725 L 189.562 159.592 L 162.745 159.592 Z "
      fill="#BFD7B5" />
    <path d=" M 163.71 47.131 L 163.71 60.878 L 50.749 60.878 L 58 47.131 L 163.71 47.131 Z " fill="#BFD7B5" />
    <path d=" M 163.71 47.131 L 163.71 60.878 L 50.749 60.878 L 58 47.131 L 163.71 47.131 Z " fill="#BFD7B5" />
    <path d=" M 112.294 194.135 L 112.294 180.389 L 225.254 180.389 L 218.004 194.135 L 112.294 194.135 Z "
      fill="#BFD7B5" />
  </g>
</svg>
