<?xml version="1.0" encoding="UTF-8" standalone="no"?>
<!-- Generator: Gravit.io -->
<svg xmlns="http://www.w3.org/2000/svg" xmlns:xlink="http://www.w3.org/1999/xlink"
  style="isolation:isolate" viewBox="0 0 276 241.271" width="276pt" height="241.271pt">
  <path
    d=" M 207 240.145 Q 203.372 242.283 138 240.145 Q 72.913 242.397 69 240.145 Q 65.087 237.893 34.5 180.389 Q 0 125.955 0 120.633 Q 0 115.312 34.5 60.878 Q 65.192 3.366 69 1.122 Q 72.808 -1.122 138 1.122 Q 203.133 -1.104 207 1.122 Q 210.867 3.348 241.5 60.878 Q 276 115.312 276 120.633 Q 276 125.955 241.5 180.389 Q 210.628 238.007 207 240.145 Z "
    fill="#C97D60" />
  <path
    d=" M 180.073 36.513 L 158.246 36.478 C 133.725 36.478 117.878 52.736 117.878 77.9 L 117.878 96.999 L 95.932 96.999 C 94.036 96.999 92.5 98.536 92.5 100.433 L 92.5 128.105 C 92.5 130.001 94.037 131.537 95.932 131.537 L 117.878 131.537 L 117.878 201.361 C 117.878 203.258 119.414 204.793 121.31 204.793 L 149.943 204.793 C 151.839 204.793 153.375 203.256 153.375 201.361 L 153.375 131.537 L 179.035 131.537 C 180.931 131.537 182.467 130.001 182.467 128.105 L 182.477 100.433 C 182.477 99.522 182.115 98.65 181.472 98.006 C 180.83 97.361 179.954 96.999 179.044 96.999 L 153.375 96.999 L 153.375 80.809 C 153.375 73.027 155.229 69.077 165.366 69.077 L 180.07 69.072 C 181.964 69.072 183.5 67.534 183.5 65.64 L 183.5 39.945 C 183.5 38.052 181.966 36.516 180.073 36.513 Z "
    fill="#262322" />
</svg>
