<?xml version="1.0" encoding="UTF-8" standalone="no"?>
<!-- Generator: Gravit.io -->
<svg xmlns="http://www.w3.org/2000/svg" xmlns:xlink="http://www.w3.org/1999/xlink"
  style="isolation:isolate" viewBox="0 0 276 241.271" width="276pt" height="241.271pt">
  <path
    d=" M 207 240.145 Q 203.372 242.283 138 240.145 Q 72.913 242.397 69 240.145 Q 65.087 237.893 34.5 180.389 Q 0 125.955 0 120.633 Q 0 115.312 34.5 60.878 Q 65.192 3.366 69 1.122 Q 72.808 -1.122 138 1.122 Q 203.133 -1.104 207 1.122 Q 210.867 3.348 241.5 60.878 Q 276 115.312 276 120.633 Q 276 125.955 241.5 180.389 Q 210.628 238.007 207 240.145 Z "
    fill="#C97D60" />
  <path
    d=" M 180.073 36.513 L 158.246 36.478 C 133.725 36.478 117.878 52.736 117.878 77.9 L 117.878 96.999 L 95.932 96.999 C 94.036 96.999 92.5 98.536 92.5 100.433 L 92.5 128.105 C 92.5 130.001 94.037 131.537 95.932 131.537 L 117.878 131.537 L 117.878 201.361 C 117.878 203.258 119.414 204.793 121.31 204.793 L 149.943 204.793 C 151.839 204.793 153.375 203.256 153.375 201.361 L 153.375 131.537 L 179.035 131.537 C 180.931 131.537 182.467 130.001 182.467 128.105 L 182.477 100.433 C 182.477 99.522 182.115 98.65 181.472 98.006 C 180.83 97.361 179.954 96.999 179.044 96.999 L 153.375 96.999 L 153.375 80.809 C 153.375 73.027 155.229 69.077 165.366 69.077 L 180.07 69.072 C 181.964 69.072 183.5 67.534 183.5 65.64 L 183.5 39.945 C 183.5 38.052 181.966 36.516 180.073 36.513 Z "
    fill="rgb(59,89,152)" />
  <path
    d=" M 183.5 39.809 L 183.5 65.504 C 183.5 67.399 181.964 68.936 180.07 68.936 L 165.366 68.941 C 155.229 68.941 153.375 72.892 153.375 80.673 L 153.375 96.864 L 179.044 96.864 C 179.954 96.864 180.83 97.226 181.472 97.87 C 182.115 98.515 182.477 99.387 182.477 100.297 L 182.467 127.969 C 182.467 129.865 180.931 131.401 179.035 131.401 L 153.375 131.401 L 153.375 201.226 C 153.375 203.12 151.839 204.658 149.943 204.658 L 121.31 204.658 C 119.414 204.658 117.878 203.122 117.878 201.226 L 117.878 131.401 L 95.932 131.401 C 94.037 131.401 92.5 129.865 92.5 127.969 L 92.5 100.297 C 92.5 98.401 94.036 96.864 95.932 96.864 L 117.878 96.864 L 117.878 77.765 C 117.878 52.601 133.725 36.342 158.246 36.342 L 180.073 36.377 C 181.966 36.381 183.5 37.916 183.5 39.809 Z  M 161.63 77.31 C 161.54 77.72 161.48 78.13 161.45 78.55 C 161.4 79.24 161.37 79.94 161.37 80.63 C 161.38 80.65 161.38 80.66 161.38 80.67 L 161.38 88.86 L 179.04 88.86 C 182.08 88.86 184.99 90.07 187.13 92.22 C 189.27 94.36 190.48 97.27 190.48 100.29 C 190.48 100.3 190.48 100.3 190.48 100.3 L 190.47 127.97 C 190.47 131 189.26 133.91 187.12 136.05 C 184.97 138.2 182.07 139.4 179.03 139.4 L 161.38 139.4 L 161.38 201.23 C 161.38 204.26 160.17 207.17 158.03 209.31 C 155.88 211.45 152.97 212.66 149.94 212.66 L 121.31 212.66 C 118.28 212.66 115.37 211.45 113.23 209.31 C 111.08 207.17 109.88 204.26 109.88 201.23 L 109.88 139.4 L 95.93 139.4 C 92.9 139.4 89.99 138.2 87.85 136.05 C 85.71 133.91 84.5 131 84.5 127.97 C 84.5 127.97 84.5 127.97 84.5 127.97 L 84.5 100.3 C 84.5 97.27 85.7 94.36 87.85 92.21 C 89.99 90.07 92.9 88.86 95.93 88.86 C 95.93 88.86 95.93 88.86 95.93 88.86 L 109.88 88.86 L 109.88 77.78 C 109.87 74.32 110.15 70.86 110.71 67.45 C 111.25 64.2 112.09 61.01 113.23 57.92 C 114.32 54.94 115.71 52.08 117.39 49.38 C 119.04 46.73 120.97 44.26 123.15 42.02 C 127.55 37.54 132.86 34.06 138.72 31.81 C 141.75 30.64 144.89 29.77 148.09 29.21 C 151.45 28.62 154.86 28.33 158.26 28.34 L 180.09 28.38 C 180.09 28.38 180.09 28.38 180.09 28.38 C 183.11 28.38 186.02 29.59 188.16 31.73 C 190.3 33.87 191.5 36.78 191.5 39.81 C 191.5 39.81 191.5 39.81 191.5 39.81 L 191.5 65.5 C 191.5 68.53 190.3 71.44 188.15 73.59 C 186.01 75.73 183.1 76.94 180.07 76.94 L 165.37 76.94 C 165.35 76.94 165.33 76.94 165.32 76.94 C 164.49 76.94 163.66 76.98 162.84 77.08 C 162.43 77.12 162.03 77.2 161.63 77.31 Z "
    fill-rule="evenodd" fill="#fff" />
</svg>
