<?xml version="1.0" encoding="UTF-8" standalone="no"?>
<!-- Generator: Gravit.io --><svg xmlns="http://www.w3.org/2000/svg" xmlns:xlink="http://www.w3.org/1999/xlink"
  style="isolation:isolate" viewBox="0 0 512 512" width="512pt" height="512pt">
  <defs>
    <clipPath id="_clipPath_d28flEnmXD351H54JLFOpA2Quf5lB4tC">
      <rect width="512" height="512" />
    </clipPath>
  </defs>
  <g clip-path="url(#_clipPath_d28flEnmXD351H54JLFOpA2Quf5lB4tC)">
    <path
      d=" M 256 16 C 114.56 16 0 126.19 0 262.09 C 0 370.84 73.344 463.061 175.04 495.575 C 187.84 497.892 192.533 490.275 192.533 483.743 C 192.533 477.899 192.32 462.414 192.213 441.9 C 121.003 456.738 105.984 408.885 105.984 408.885 C 94.336 380.482 77.504 372.885 77.504 372.885 C 54.315 357.63 79.296 357.943 79.296 357.943 C 105.003 359.654 118.507 383.299 118.507 383.299 C 141.333 420.926 178.432 410.053 193.067 403.772 C 195.371 387.848 201.963 377.017 209.28 370.861 C 152.427 364.704 92.672 343.543 92.672 249.256 C 92.672 222.397 102.592 200.442 119.019 183.225 C 116.139 177.006 107.499 151.984 121.259 118.092 C 121.259 118.092 142.699 111.498 191.659 143.323 C 212.139 137.856 233.899 135.143 255.659 135.017 C 277.419 135.143 299.179 137.856 319.659 143.323 C 368.299 111.498 389.739 118.092 389.739 118.092 C 403.499 151.984 394.859 177.006 392.299 183.225 C 408.619 200.442 418.539 222.397 418.539 249.256 C 418.539 343.793 358.699 364.6 301.739 370.652 C 310.699 378.04 319.019 393.128 319.019 416.189 C 319.019 449.12 318.699 475.583 318.699 483.576 C 318.699 490.024 323.179 497.725 336.299 495.262 C 438.72 462.957 512 370.673 512 262.09 C 512 126.19 397.376 16 256 16 Z "
      fill="rgb(201,125,96)" />
  </g>
</svg>