<?xml version="1.0" encoding="UTF-8" standalone="no"?>
<!-- Generator: Gravit.io -->
<svg xmlns="http://www.w3.org/2000/svg" xmlns:xlink="http://www.w3.org/1999/xlink"
  style="isolation:isolate" viewBox="0 0 276 241.271" width="276pt" height="241.271pt">
  <path
    d=" M 207 240.145 Q 203.372 242.283 138 240.145 Q 72.913 242.397 69 240.145 Q 65.087 237.893 34.5 180.389 Q 0 125.955 0 120.633 Q 0 115.312 34.5 60.878 Q 65.192 3.366 69 1.122 Q 72.808 -1.122 138 1.122 Q 203.133 -1.104 207 1.122 Q 210.867 3.348 241.5 60.878 Q 276 115.312 276 120.633 Q 276 125.955 241.5 180.389 Q 210.628 238.007 207 240.145 Z "
    fill="#C97D60" />
  <g>
    <g>
      <path d=" M 196.119 86.828 L 187.822 170.135 L 88.178 170.135 L 81.494 88.44 L 138 120.077 L 196.119 86.828 Z "
        fill="#262322" />
      <path d=" M 193.305 71.135 L 138 123.087 L 82.695 71.135 L 138 71.135 L 193.305 71.135 Z "
        fill="#262322" />
    </g>
    <path
      d=" M 88.178 95.124 L 88.178 170.135 L 79.148 170.135 C 75.766 170.135 73.021 167.391 73.021 164.008 L 73.021 84.076 L 82.92 84.346 L 88.178 95.124 Z "
      fill="#C97D60" />
    <path
      d=" M 202.979 84.076 L 202.979 164.008 C 202.979 167.391 200.234 170.135 196.848 170.135 L 187.822 170.135 L 187.822 95.124 L 192.821 83.315 L 202.979 84.076 Z "
      fill="#C97D60" />
    <path
      d=" M 202.979 77.263 L 202.979 84.076 L 187.822 95.124 L 138 131.438 L 88.178 95.124 L 73.021 84.076 L 73.021 77.263 C 73.021 73.88 75.766 71.135 79.148 71.135 L 82.695 71.135 L 138 111.445 L 193.305 71.135 L 196.848 71.135 C 200.234 71.135 202.979 73.88 202.979 77.263 Z "
      fill="#C97D60" />
  </g>
  <path
    d=" M 193.305 71 L 138 71 L 82.695 71 L 82.695 71 L 79.148 71 C 75.766 71 73.021 73.744 73.021 77.127 L 73.021 83.941 L 73.021 83.941 L 73.021 163.873 C 73.021 167.256 75.766 170 79.148 170 L 88.178 170 L 88.178 170 L 187.822 170 L 187.822 170 L 196.848 170 C 200.234 170 202.979 167.256 202.979 163.873 L 202.979 83.941 L 202.979 83.941 L 202.979 77.127 C 202.979 73.744 200.234 71 196.848 71 L 193.305 71 L 193.305 71 Z  M 196.85 63 L 196.85 63 L 196.85 63 L 196.85 63 Z  M 196.85 63 M 196.85 63 C 200.59 63 204.19 64.49 206.84 67.14 C 209.49 69.78 210.98 73.38 210.98 77.12 C 210.98 77.13 210.98 77.13 210.98 77.13 L 210.98 83.94 L 210.98 163.87 C 210.98 163.87 210.98 163.87 210.98 163.88 C 210.98 167.62 209.49 171.22 206.84 173.86 C 204.19 176.51 200.59 178 196.85 178 L 179.82 178 L 179.82 178 L 88.18 178 L 79.15 178 L 79.15 178 L 79.15 178 C 75.4 178 71.81 176.51 69.16 173.86 C 66.51 171.21 65.02 167.62 65.02 163.87 L 65.02 83.94 L 65.02 77.13 C 65.02 73.38 66.51 69.79 69.16 67.14 C 71.81 64.49 75.4 63 79.15 63 L 79.15 63 L 82.7 63 L 82.7 63 L 138 63 L 193.3 63 L 196.85 63 Z "
    fill-rule="evenodd" fill="#262322" />
</svg>
