<?xml version="1.0" encoding="UTF-8" standalone="no"?>
<!-- Generator: Gravit.io --><svg xmlns="http://www.w3.org/2000/svg" xmlns:xlink="http://www.w3.org/1999/xlink"
  style="isolation:isolate" viewBox="0 0 512 512" width="512pt" height="512pt">
  <defs>
    <clipPath id="_clipPath_hagbsoEIsUGE5mWQGM5QsIIzvGXvMQ4O">
      <rect width="512" height="512" />
    </clipPath>
  </defs>
  <g clip-path="url(#_clipPath_hagbsoEIsUGE5mWQGM5QsIIzvGXvMQ4O)">
    <path
      d=" M 389.484 0 C 356.765 0 325.999 12.75 302.859 35.891 L 207.454 131.295 C 214.746 130.277 222.03 129.172 229.483 129.172 C 250.033 129.172 270.171 133.164 288.683 140.567 L 348.109 81.14 C 359.171 70.093 373.859 64 389.484 64 C 421.75 64 447.999 90.249 447.999 122.515 C 447.999 138.141 441.906 152.828 430.859 163.89 L 323.891 270.859 C 301.766 292.952 263.267 292.968 241.141 270.875 L 195.922 316.156 C 219.048 339.266 249.813 352 282.516 352 C 315.235 352 346 339.25 369.141 316.11 L 476.11 209.14 C 499.251 186 512.001 155.234 512.001 122.515 C 512 54.953 457.047 0 389.484 0 L 389.484 0 Z "
      fill="rgb(201,125,96)" />
    <path
      d=" M 222.756 371.994 L 163.891 430.86 C 152.829 441.907 138.141 448 122.516 448 C 90.25 448 64 421.751 64 389.485 C 64 373.86 70.094 359.172 81.141 348.11 L 188.111 241.141 C 210.236 219.048 248.735 219.032 270.861 241.125 L 316.08 195.844 C 269.814 149.625 189.142 149.61 142.861 195.89 L 35.891 302.86 C 12.749 326 0 356.765 0 389.484 C 0 457.047 54.953 511.999 122.515 511.999 C 155.234 511.999 185.999 499.249 209.14 476.108 L 303.279 381.97 C 296.405 382.894 289.568 383.999 282.515 383.999 C 261.648 384 241.437 379.828 222.756 371.994 L 222.756 371.994 Z "
      fill="rgb(201,125,96)" />
  </g>
</svg>
