<?xml version="1.0" encoding="UTF-8" standalone="no"?>
<!-- Generator: Gravit.io --><svg xmlns="http://www.w3.org/2000/svg" xmlns:xlink="http://www.w3.org/1999/xlink"
  style="isolation:isolate" viewBox="0 0 276 241.271" width="276pt" height="241.271pt">
  <path
    d=" M 207 240.145 Q 203.372 242.283 138 240.145 Q 72.913 242.397 69 240.145 Q 65.087 237.893 34.5 180.389 Q 0 125.955 0 120.633 Q 0 115.312 34.5 60.878 Q 65.192 3.366 69 1.122 Q 72.808 -1.122 138 1.122 Q 203.133 -1.104 207 1.122 Q 210.867 3.348 241.5 60.878 Q 276 115.312 276 120.633 Q 276 125.955 241.5 180.389 Q 210.628 238.007 207 240.145 Z "
    fill="#C97D60" />
  <path
    d=" M 80.516 176.793 L 96.5 176.793 C 98.705 176.793 100.493 175.005 100.493 172.8 L 100.493 102.933 C 100.493 100.728 98.705 98.941 96.5 98.941 L 80.516 98.941 C 78.311 98.941 76.523 100.728 76.523 102.933 L 76.523 172.8 C 76.523 175.005 78.311 176.793 80.516 176.793 L 80.516 176.793 Z  M 80.516 86.658 L 96.5 86.658 C 98.705 86.658 100.493 84.87 100.493 82.665 L 100.493 68.471 C 100.493 66.266 98.705 64.478 96.5 64.478 L 80.516 64.478 C 78.311 64.478 76.523 66.266 76.523 68.471 L 76.523 82.665 C 76.523 84.87 78.311 86.658 80.516 86.658 L 80.516 86.658 Z  M 193.463 107.044 C 191.217 104.088 187.905 101.656 183.525 99.75 C 179.146 97.846 174.312 96.893 169.024 96.893 C 158.287 96.893 149.19 100.991 141.731 109.187 C 140.247 110.818 139.168 110.461 139.168 108.256 L 139.168 102.933 C 139.168 100.728 137.381 98.941 135.175 98.941 L 120.897 98.941 C 118.692 98.941 116.904 100.728 116.904 102.933 L 116.904 172.8 C 116.904 175.005 118.692 176.793 120.897 176.793 L 136.881 176.793 C 139.087 176.793 140.874 175.005 140.874 172.8 L 140.874 148.502 C 140.874 138.38 141.485 131.441 142.708 127.688 C 143.93 123.935 146.191 120.921 149.489 118.646 C 152.788 116.372 156.512 115.234 160.664 115.234 C 163.905 115.234 166.678 116.03 168.981 117.623 C 171.285 119.215 172.948 121.446 173.972 124.319 C 174.996 127.191 175.508 133.517 175.508 143.299 L 175.508 172.799 C 175.508 175.005 177.295 176.792 179.5 176.792 L 195.484 176.792 C 197.689 176.792 199.477 175.005 199.477 172.799 L 199.477 133.233 C 199.477 126.239 199.036 120.864 198.155 117.111 C 197.275 113.358 195.71 110.002 193.463 107.044 Z "
    fill-rule="evenodd" fill="rgb(40,103,178)" />
  <path
    d=" M 80.516 176.657 L 96.5 176.657 C 98.705 176.657 100.493 174.869 100.493 172.664 L 100.493 102.798 C 100.493 100.592 98.705 98.805 96.5 98.805 L 80.516 98.805 C 78.311 98.805 76.523 100.592 76.523 102.798 L 76.523 172.664 C 76.523 174.869 78.311 176.657 80.516 176.657 L 80.516 176.657 Z  M 80.516 86.522 L 96.5 86.522 C 98.705 86.522 100.493 84.735 100.493 82.53 L 100.493 68.336 C 100.493 66.13 98.705 64.343 96.5 64.343 L 80.516 64.343 C 78.311 64.343 76.523 66.13 76.523 68.336 L 76.523 82.53 C 76.523 84.735 78.311 86.522 80.516 86.522 L 80.516 86.522 Z  M 193.463 106.909 C 191.217 103.952 187.905 101.521 183.525 99.615 C 179.146 97.711 174.312 96.758 169.024 96.758 C 158.287 96.758 149.19 100.855 141.731 109.051 C 140.247 110.682 139.168 110.326 139.168 108.12 L 139.168 102.798 C 139.168 100.592 137.381 98.805 135.175 98.805 L 120.897 98.805 C 118.692 98.805 116.904 100.592 116.904 102.798 L 116.904 172.664 C 116.904 174.869 118.692 176.657 120.897 176.657 L 136.881 176.657 C 139.087 176.657 140.874 174.869 140.874 172.664 L 140.874 148.366 C 140.874 138.244 141.485 131.306 142.708 127.553 C 143.93 123.8 146.191 120.786 149.489 118.511 C 152.788 116.236 156.512 115.098 160.664 115.098 C 163.905 115.098 166.678 115.895 168.981 117.487 C 171.285 119.08 172.948 121.311 173.972 124.183 C 174.996 127.056 175.508 133.382 175.508 143.164 L 175.508 172.664 C 175.508 174.869 177.295 176.657 179.5 176.657 L 195.484 176.657 C 197.689 176.657 199.477 174.869 199.477 172.664 L 199.477 133.097 C 199.477 126.103 199.036 120.729 198.155 116.976 C 197.275 113.222 195.71 109.867 193.463 106.909 Z  M 80.52 92.26 L 96.5 92.26 C 99.68 92.26 102.73 92.07 104.98 94.32 C 107.23 96.57 108.49 99.62 108.49 102.8 C 108.49 102.8 108.49 102.8 108.49 102.8 L 108.49 102.8 L 108.49 172.66 C 108.49 175.84 107.23 178.9 104.98 181.14 C 102.73 183.39 99.68 184.66 96.5 184.66 C 96.5 184.66 96.5 184.66 96.5 184.66 L 80.52 184.66 C 80.52 184.66 80.52 184.66 80.52 184.66 C 77.34 184.66 74.28 183.39 72.04 181.14 C 69.79 178.9 68.52 175.84 68.52 172.66 L 68.52 102.8 C 68.52 99.62 69.79 96.57 72.04 94.32 C 74.28 92.07 77.34 92.26 80.52 92.26 Z  M 108.49 172.66 L 108.49 172.66 L 108.49 172.66 C 108.49 172.66 108.49 172.66 108.49 172.66 Z  M 96.5 92.54 L 80.52 92.54 C 77.34 92.54 74.28 93.26 72.04 91.01 C 69.79 88.76 68.52 85.71 68.52 82.53 L 68.52 68.34 C 68.52 65.16 69.79 62.1 72.04 59.86 C 74.28 57.61 77.34 56.34 80.52 56.34 L 80.52 56.34 L 96.5 56.34 C 99.68 56.34 102.73 57.61 104.98 59.86 C 107.23 62.1 108.49 65.16 108.49 68.34 L 108.49 68.34 L 108.49 82.53 L 108.49 82.53 L 108.49 82.53 C 108.49 85.71 107.23 88.76 104.98 91.01 C 102.73 93.26 99.68 92.54 96.5 92.54 Z  M 144.92 95.81 C 146.81 94.56 148.8 93.47 150.86 92.54 C 153.68 91.27 156.64 90.31 159.67 89.69 C 162.75 89.06 165.88 88.75 169.02 88.76 C 172.08 88.75 175.14 89.04 178.14 89.62 C 181.07 90.19 183.94 91.08 186.68 92.26 C 189.26 93.36 191.7 94.74 193.98 96.38 C 196.19 97.98 198.16 99.89 199.83 102.06 C 202.77 105.95 204.85 110.42 205.95 115.18 C 206.24 116.43 206.47 117.7 206.65 118.97 C 206.85 120.38 207.01 121.79 207.12 123.2 C 207.38 126.5 207.49 129.81 207.48 133.12 L 207.48 172.66 C 207.48 175.84 206.21 178.9 203.96 181.14 C 201.72 183.39 198.66 184.66 195.48 184.66 C 195.48 184.66 195.48 184.66 195.48 184.66 L 195.48 184.66 L 179.5 184.66 L 179.5 184.66 L 179.5 184.66 C 176.32 184.66 173.27 183.39 171.02 181.14 C 168.77 178.9 167.51 175.84 167.51 172.66 L 167.51 143.16 L 167.51 143.16 L 167.51 143.15 C 167.51 141 167.48 138.86 167.42 136.71 C 167.37 135.04 167.28 133.36 167.15 131.69 C 167.06 130.52 166.92 129.36 166.74 128.2 C 166.67 127.71 166.56 127.24 166.4 126.78 C 166.19 126.18 165.9 125.63 165.53 125.12 C 165.22 124.71 164.86 124.36 164.44 124.07 C 164 123.77 163.52 123.54 163.01 123.4 C 162.26 123.19 161.5 123.09 160.73 123.1 C 160.71 123.1 160.69 123.1 160.66 123.1 L 160.66 123.1 L 160.66 123.1 L 160.63 123.1 C 159.43 123.09 158.23 123.26 157.08 123.61 C 155.99 123.94 154.96 124.45 154.02 125.1 C 153.14 125.7 152.36 126.44 151.72 127.28 C 151.11 128.1 150.65 129.01 150.33 129.97 C 150.1 130.72 149.92 131.48 149.8 132.25 C 149.58 133.57 149.41 134.91 149.3 136.24 C 149.15 138.04 149.04 139.84 148.98 141.64 C 148.91 143.88 148.87 146.12 148.87 148.35 C 148.87 148.36 148.87 148.36 148.87 148.37 L 148.87 172.66 C 148.87 175.84 147.61 178.9 145.36 181.14 C 143.11 183.39 140.06 184.66 136.88 184.66 C 136.88 184.66 136.88 184.66 136.88 184.66 L 120.9 184.66 C 120.9 184.66 120.9 184.66 120.9 184.66 C 117.72 184.66 114.67 183.39 112.42 181.14 C 110.17 178.9 108.9 175.84 108.9 172.66 L 108.9 102.8 C 108.9 99.62 110.17 96.57 112.42 94.32 C 114.67 92.07 117.72 90.81 120.9 90.81 L 135.18 90.81 C 139.04 90.81 142.67 92.67 144.92 95.81 Z  M 169 88.76 C 169 88.76 169.01 88.76 169.02 88.76"
    fill-rule="evenodd" fill="#fff" />
</svg>
