<?xml version="1.0" encoding="UTF-8" standalone="no"?>
<!-- Generator: Gravit.io --><svg xmlns="http://www.w3.org/2000/svg" xmlns:xlink="http://www.w3.org/1999/xlink"
  style="isolation:isolate" viewBox="0 0 512 512" width="512pt" height="512pt">
  <defs>
    <clipPath id="_clipPath_ika9BxVvrxD6J9L9tNTY5cimgtQ7PskD">
      <rect width="512" height="512" />
    </clipPath>
  </defs>
  <g clip-path="url(#_clipPath_ika9BxVvrxD6J9L9tNTY5cimgtQ7PskD)">
    <path
      d=" M 471.147 103.011 L 512 64.442 L 512 56 L 370.475 56 L 269.611 303.747 L 154.859 56 L 6.464 56 L 6.464 64.442 L 54.187 121.137 C 58.837 125.326 61.269 131.453 60.651 137.621 L 60.651 360.421 C 62.123 368.442 59.477 376.695 53.76 382.526 L 0 446.821 L 0 455.158 L 152.427 455.158 L 152.427 446.716 L 98.667 382.526 C 92.843 376.674 90.091 368.568 91.264 360.421 L 91.264 167.705 L 225.067 455.263 L 240.619 455.263 L 355.669 167.705 L 355.669 396.779 C 355.669 402.821 355.669 404.063 351.659 408.021 L 310.272 447.537 L 310.272 456 L 511.061 456 L 511.061 447.558 L 471.168 409.011 C 467.669 406.4 465.856 402.021 466.603 397.768 L 466.603 114.253 C 465.856 109.979 467.648 105.6 471.147 103.011 Z "
      fill="rgb(201,125,96)" />
  </g>
</svg>
