<?xml version="1.0" encoding="UTF-8" standalone="no"?>
<!-- Generator: Gravit.io --><svg xmlns="http://www.w3.org/2000/svg" xmlns:xlink="http://www.w3.org/1999/xlink"
  style="isolation:isolate" viewBox="0 0 276 241.271" width="276pt" height="241.271pt">
  <path
    d=" M 207 240.145 Q 203.372 242.283 138 240.145 Q 72.913 242.397 69 240.145 Q 65.087 237.893 34.5 180.389 Q 0 125.955 0 120.633 Q 0 115.312 34.5 60.878 Q 65.192 3.366 69 1.122 Q 72.808 -1.122 138 1.122 Q 203.133 -1.104 207 1.122 Q 210.867 3.348 241.5 60.878 Q 276 115.312 276 120.633 Q 276 125.955 241.5 180.389 Q 210.628 238.007 207 240.145 Z "
    fill="#BFD7B5" />
  <path d=" M 187 47.131 L 187 70 L 47 70 L 59.495 47.131 L 187 47.131 Z " fill="#262322" />
  <path d=" M 201.753 108.5 L 201.753 132.5 L 74.247 132.5 L 74.247 108.5 L 201.753 108.5 Z " fill="#262322" />
  <path d=" M 89 195 L 89 171 L 230 171 L 216.508 195 L 89 195 Z " fill="#262322" />
</svg>
