<?xml version="1.0" encoding="UTF-8" standalone="no"?>
<!-- Generator: Gravit.io --><svg xmlns="http://www.w3.org/2000/svg" xmlns:xlink="http://www.w3.org/1999/xlink"
  style="isolation:isolate" viewBox="0 0 393.4 393.4" width="393.4pt" height="393.4pt">
  <defs>
    <clipPath id="_clipPath_IRZUICrysC8BJaZyIGyl6l8tYbmi4xIV">
      <rect width="393.4" height="393.4" />
    </clipPath>
  </defs>
  <g clip-path="url(#_clipPath_IRZUICrysC8BJaZyIGyl6l8tYbmi4xIV)">
    <path
      d=" M 378.4 17.2 L 15 17.2 C 6.71 17.2 0 23.92 0 32.2 L 0 361.2 C 0 369.48 6.72 376.2 15 376.2 L 378.4 376.2 C 386.69 376.2 393.4 369.48 393.4 361.2 L 393.4 32.2 C 393.4 23.92 386.68 17.2 378.4 17.2 Z  M 196.7 42.55 C 267.19 42.55 324.54 99.9 324.54 170.39 C 324.54 240.88 267.19 298.22 196.7 298.22 C 126.21 298.22 68.86 240.88 68.86 170.39 C 68.86 99.9 126.21 42.55 196.7 42.55 Z  M 61.74 337.66 C 61.74 329.38 68.46 322.66 76.74 322.66 L 172.41 322.66 C 180.69 322.66 187.41 329.38 187.41 337.66 C 187.41 345.95 180.69 352.66 172.41 352.66 L 76.74 352.66 C 68.46 352.66 61.74 345.95 61.74 337.66 L 61.74 337.66 Z  M 316.66 352.66 L 223.66 352.66 C 215.38 352.66 208.66 345.95 208.66 337.66 C 208.66 329.38 215.38 322.66 223.66 322.66 L 316.66 322.66 C 324.94 322.66 331.66 329.38 331.66 337.66 C 331.66 345.95 324.94 352.66 316.66 352.66 Z "
      fill="rgb(201,125,96)" />
    <path
      d=" M 253.31 251.5 C 237.3 262.78 217.78 269.4 196.7 269.4 C 175.69 269.4 156.22 262.82 140.24 251.6 C 147.48 227.11 170.32 209.29 196.76 209.29 C 223.47 209.29 246.12 226.8 253.31 251.5 L 253.31 251.5 Z "
      fill="rgb(201,125,96)" />
    <circle vector-effect="non-scaling-stroke" cx="196.76000000000002" cy="156.83999999999997" r="22.450000000000017"
      fill="rgb(201,125,96)" />
    <path
      d=" M 295.14 170.97 C 295.14 192.53 288.19 212.48 276.43 228.69 C 271.59 218.93 264.95 210.05 256.73 202.55 C 250.98 197.3 244.63 192.9 237.86 189.36 C 244.96 180.42 249.21 169.12 249.21 156.84 C 249.21 127.92 225.68 104.39 196.76 104.39 C 167.84 104.39 144.31 127.92 144.31 156.84 C 144.31 169.12 148.56 180.41 155.66 189.36 C 148.66 193.01 142.11 197.6 136.21 203.08 C 128.22 210.51 121.77 219.23 117.04 228.79 C 105.23 212.56 98.27 192.58 98.27 170.97 C 98.27 116.6 142.34 72.53 196.7 72.53 C 251.06 72.53 295.14 116.6 295.14 170.97 L 295.14 170.97 Z "
      fill="rgb(201,125,96)" />
  </g>
</svg>
