<?xml version="1.0" encoding="UTF-8" standalone="no"?>
<!-- Generator: Gravit.io --><svg xmlns="http://www.w3.org/2000/svg" xmlns:xlink="http://www.w3.org/1999/xlink"
  style="isolation:isolate" viewBox="0 0 276 241.271" width="276pt" height="241.271pt">
  <g>
    <path
      d=" M 207 240.145 Q 203.372 242.283 138 240.145 Q 72.913 242.397 69 240.145 Q 65.087 237.893 34.5 180.389 Q 0 125.955 0 120.633 Q 0 115.312 34.5 60.878 Q 65.192 3.366 69 1.122 Q 72.808 -1.122 138 1.122 Q 203.133 -1.104 207 1.122 Q 210.867 3.348 241.5 60.878 Q 276 115.312 276 120.633 Q 276 125.955 241.5 180.389 Q 210.628 238.007 207 240.145 Z "
      fill="#C97D60" />
    <path d=" M 163.71 47.131 L 163.71 60.878 L 50.749 60.878 L 58 47.131 L 163.71 47.131 Z " fill="#262322" />
    <path d=" M 163.71 47.131 L 163.71 60.878 L 50.749 60.878 L 58 47.131 L 163.71 47.131 Z " fill="#262322" />
    <path d=" M 112.294 194.135 L 112.294 180.389 L 225.254 180.389 L 218.004 194.135 L 112.294 194.135 Z "
      fill="#262322" />
    <path
      d=" M 183.715 123.055 L 183.715 120.7 L 197.038 120.7 L 197.038 133.989 L 194.541 133.989 L 194.541 133.989 Q 188.036 133.989 185.659 131.001 L 185.659 131.001 L 185.659 131.001 Q 183.715 128.54 183.715 123.055 L 183.715 123.055 Z  M 166.646 168.477 L 166.646 120.7 L 179.562 120.7 L 179.562 139.966 L 189.188 139.966 L 189.188 149.141 L 179.562 149.141 L 179.562 168.477 L 166.646 168.477 Z  M 183.691 168.548 L 183.691 165.137 L 183.691 165.137 Q 183.691 157.86 189.452 155.259 L 189.452 155.259 L 189.452 155.259 Q 191.66 154.274 195.141 154.274 L 195.141 154.274 L 197.038 154.274 L 197.038 168.548 L 183.691 168.548 Z  M 233.982 144.782 L 219.171 120.7 L 233.982 120.7 L 233.982 144.782 Z  M 223.252 168.512 L 203.495 134.833 L 203.351 134.833 L 203.351 134.833 Q 203.351 127.591 206.04 124.145 L 206.04 124.145 L 206.04 124.145 Q 208.728 120.7 214.322 120.7 L 214.322 120.7 L 233.982 155.645 L 233.982 155.645 Q 233.982 162.606 231.414 165.594 L 231.414 165.594 L 231.414 165.594 Q 228.917 168.512 223.252 168.512 L 223.252 168.512 Z  M 203.423 168.548 L 203.423 144.325 L 217.683 168.548 L 203.423 168.548 Z  M 72.649 102.782 L 57.837 78.7 L 72.649 78.7 L 72.649 102.782 Z  M 61.918 126.512 L 42.162 92.833 L 42.018 92.833 L 42.018 92.833 Q 42.018 85.591 44.706 82.145 L 44.706 82.145 L 44.706 82.145 Q 47.395 78.7 52.988 78.7 L 52.988 78.7 L 72.649 113.645 L 72.649 113.645 Q 72.649 120.606 70.08 123.594 L 70.08 123.594 L 70.08 123.594 Q 67.584 126.512 61.918 126.512 L 61.918 126.512 Z  M 42.09 126.548 L 42.09 102.325 L 56.349 126.548 L 42.09 126.548 Z  M 96.102 126.548 L 96.102 90.688 L 97.951 90.688 L 97.951 90.688 Q 103.856 90.688 107.025 96.032 L 107.025 96.032 L 107.025 96.032 Q 109.882 100.884 109.882 108.899 L 109.882 108.899 L 109.882 108.899 Q 109.882 117.055 106.713 121.696 L 106.713 121.696 L 106.713 121.696 Q 103.4 126.548 97.351 126.548 L 97.351 126.548 L 96.102 126.548 Z  M 78.434 109.04 L 78.434 109.04 L 78.434 109.04 Q 78.434 105.173 79.13 101.85 L 79.13 101.85 L 79.13 101.85 Q 79.827 98.528 81.291 96.032 L 81.291 96.032 L 81.291 96.032 Q 84.46 90.688 90.365 90.688 L 90.365 90.688 L 92.213 90.688 L 92.213 126.548 L 90.965 126.548 L 90.965 126.548 Q 84.916 126.548 81.603 121.696 L 81.603 121.696 L 81.603 121.696 Q 78.434 117.055 78.434 109.04 Z  M 116.291 126.548 L 116.291 72.723 L 129.206 72.723 L 129.206 126.548 L 116.291 126.548 Z  M 154.292 108.618 L 154.292 100.673 L 154.292 100.673 Q 154.292 90.688 163.102 90.688 L 163.102 90.688 L 166.463 90.688 L 166.463 108.618 L 154.292 108.618 Z  M 137.488 126.548 L 137.488 90.688 L 150.835 90.688 L 150.835 126.548 L 137.488 126.548 Z "
      fill="#262322" />
  </g>
</svg>
